# WaveFront *.obj file (generated by Autodesk ATF)

mtllib body2_visual.mtl

g Body2

v 10.500000 -2.750000 6.000000
v 5.500000 -2.750000 6.000000
v 5.500000 -0.750000 6.000000
v 10.500000 -0.750000 6.000000
v 10.500000 -0.750000 6.500000
v 5.500000 -0.750000 6.500000
v 10.500000 -2.750000 4.000000
v 5.500000 -2.750000 4.000000
v 5.500000 -3.250000 6.500000
v 10.500000 -3.250000 6.500000
v 10.500000 -0.250000 4.000000
v 16.250000 -0.250000 4.000000
v 16.250000 20.250000 4.000000
v -0.250000 20.250000 4.000000
v -0.250000 -0.250000 4.000000
v 5.500000 -0.250000 4.000000
v 15.500000 0.500000 4.000000
v 0.500000 0.500000 4.000000
v 0.500000 19.500000 4.000000
v 15.500000 19.500000 4.000000
v 16.250000 -0.250000 3.500000
v 10.500000 -0.250000 3.500000
v 10.500000 -3.250000 3.500000
v 5.500000 -3.250000 3.500000
v 5.500000 -0.250000 3.500000
v -0.250000 -0.250000 3.500000
v -0.250000 20.250000 3.500000
v 16.250000 20.250000 3.500000
v 16.000000 20.000000 3.500000
v 0.000000 20.000000 3.500000
v 0.000000 0.000000 3.500000
v 16.000000 0.000000 3.500000
v 0.500000 19.500000 1.000000
v 15.500000 19.500000 1.000000
v 15.500000 0.500000 1.000000
v 0.500000 0.500000 1.000000
v 16.000000 20.000000 0.500000
v 0.000000 20.000000 0.500000
v 16.000000 -0.000000 0.500000
v 0.000000 0.000000 0.500000
vt 0.000000 0.000000 0.000000
vt 5.000000 0.000000 0.000000
vt 0.000000 2.000000 0.000000
vt 5.000000 2.000000 0.000000
vt 0.250000 2.500000 0.000000
vt -0.250000 2.500000 0.000000
vt 0.250000 -2.500000 0.000000
vt -0.250000 -2.500000 0.000000
vt 5.000000 2.000000 0.000000
vt -0.000000 2.000000 0.000000
vt 5.000000 0.000000 0.000000
vt -0.000000 0.000000 0.000000
vt -2.500000 -0.250000 0.000000
vt 2.500000 -0.250000 0.000000
vt -2.500000 2.250000 0.000000
vt 2.500000 2.250000 0.000000
vt -2.500000 -11.250000 0.000000
vt 2.500000 -11.250000 0.000000
vt -2.500000 -8.750000 0.000000
vt 2.500000 -8.750000 0.000000
vt -7.500000 -8.000000 0.000000
vt 7.500000 -8.000000 0.000000
vt 8.250000 -8.750000 0.000000
vt 7.500000 11.000000 0.000000
vt 8.250000 11.750000 0.000000
vt -8.250000 11.750000 0.000000
vt -7.500000 11.000000 0.000000
vt -8.250000 -8.750000 0.000000
vt 8.250000 -11.750000 0.000000
vt 8.250000 8.750000 0.000000
vt 8.000000 8.500000 0.000000
vt 2.500000 8.750000 0.000000
vt -2.500000 8.750000 0.000000
vt -2.500000 11.750000 0.000000
vt 2.500000 11.750000 0.000000
vt -8.000000 8.500000 0.000000
vt -8.250000 8.750000 0.000000
vt -8.250000 -11.750000 0.000000
vt -8.000000 -11.500000 0.000000
vt 8.000000 -11.500000 0.000000
vt 3.000000 0.000000 0.000000
vt 0.500000 0.500000 0.000000
vt 0.000000 0.000000 0.000000
vt 0.500000 2.500000 0.000000
vt 0.000000 3.000000 0.000000
vt 2.500000 3.000000 0.000000
vt 2.500000 2.500000 0.000000
vt 3.000000 0.500000 0.000000
vt 0.000000 0.000000 0.000000
vt 5.000000 0.000000 0.000000
vt 0.000000 3.000000 0.000000
vt 5.000000 3.000000 0.000000
vt 0.000000 0.500000 0.000000
vt 0.000000 0.000000 0.000000
vt 2.500000 0.500000 0.000000
vt 3.000000 0.000000 0.000000
vt 2.500000 2.500000 0.000000
vt 3.000000 3.000000 0.000000
vt 0.500000 3.000000 0.000000
vt 0.500000 2.500000 0.000000
vt 0.000000 0.000000 0.000000
vt 5.750000 0.000000 0.000000
vt 0.000000 0.500000 0.000000
vt 5.750000 0.500000 0.000000
vt 0.000000 0.000000 0.000000
vt 20.500000 0.000000 0.000000
vt 0.000000 0.500000 0.000000
vt 20.500000 0.500000 0.000000
vt 0.000000 0.000000 0.000000
vt 16.500000 0.000000 0.000000
vt 0.000000 0.500000 0.000000
vt 16.500000 0.500000 0.000000
vt 0.000000 0.000000 0.000000
vt 20.500000 0.000000 0.000000
vt 0.000000 0.500000 0.000000
vt 20.500000 0.500000 0.000000
vt 0.000000 0.000000 0.000000
vt 5.750000 0.000000 0.000000
vt 0.000000 0.500000 0.000000
vt 5.750000 0.500000 0.000000
vt -15.500000 0.500000 0.000000
vt -0.500000 0.500000 0.000000
vt -15.500000 3.500000 0.000000
vt -0.500000 3.500000 0.000000
vt -19.500000 0.500000 0.000000
vt -0.500000 0.500000 0.000000
vt -19.500000 3.500000 0.000000
vt -0.500000 3.500000 0.000000
vt -15.500000 0.500000 0.000000
vt -0.500000 0.500000 0.000000
vt -15.500000 3.500000 0.000000
vt -0.500000 3.500000 0.000000
vt -19.500000 0.500000 0.000000
vt -0.500000 0.500000 0.000000
vt -19.500000 3.500000 0.000000
vt -0.500000 3.500000 0.000000
vt -7.500000 -9.500000 0.000000
vt 7.500000 -9.500000 0.000000
vt -7.500000 9.500000 0.000000
vt 7.500000 9.500000 0.000000
vt 0.000000 0.000000 0.000000
vt 16.000000 0.000000 0.000000
vt 0.000000 3.000000 0.000000
vt 16.000000 3.000000 0.000000
vt 0.000000 0.000000 0.000000
vt 20.000000 0.000000 0.000000
vt 0.000000 3.000000 0.000000
vt 20.000000 3.000000 0.000000
vt 0.000000 0.000000 0.000000
vt 16.000000 0.000000 0.000000
vt 0.000000 3.000000 0.000000
vt 16.000000 3.000000 0.000000
vt 0.000000 0.000000 0.000000
vt 20.000000 0.000000 0.000000
vt 0.000000 3.000000 0.000000
vt 20.000000 3.000000 0.000000
vt 8.000000 10.000000 0.000000
vt -8.000000 10.000000 0.000000
vt 8.000000 -10.000000 0.000000
vt -8.000000 -10.000000 0.000000
vn -0.000000 0.000000 -1.000000
vn -0.000000 0.000000 -1.000000
vn -0.000000 0.000000 -1.000000
vn -0.000000 0.000000 -1.000000
vn 0.000000 1.000000 0.000000
vn 0.000000 1.000000 0.000000
vn 0.000000 1.000000 0.000000
vn 0.000000 1.000000 0.000000
vn -0.000000 1.000000 0.000000
vn -0.000000 1.000000 0.000000
vn -0.000000 1.000000 0.000000
vn -0.000000 1.000000 0.000000
vn 0.000000 0.000000 1.000000
vn 0.000000 0.000000 1.000000
vn 0.000000 0.000000 1.000000
vn 0.000000 0.000000 1.000000
vn 0.000000 0.000000 1.000000
vn 0.000000 0.000000 1.000000
vn 0.000000 0.000000 1.000000
vn 0.000000 0.000000 1.000000
vn 0.000000 0.000000 1.000000
vn 0.000000 0.000000 1.000000
vn 0.000000 0.000000 1.000000
vn 0.000000 0.000000 1.000000
vn 0.000000 0.000000 1.000000
vn 0.000000 0.000000 1.000000
vn 0.000000 0.000000 1.000000
vn 0.000000 0.000000 1.000000
vn -0.000000 -0.000000 -1.000000
vn -0.000000 -0.000000 -1.000000
vn -0.000000 -0.000000 -1.000000
vn -0.000000 -0.000000 -1.000000
vn -0.000000 -0.000000 -1.000000
vn -0.000000 -0.000000 -1.000000
vn -0.000000 -0.000000 -1.000000
vn -0.000000 -0.000000 -1.000000
vn -0.000000 -0.000000 -1.000000
vn -0.000000 -0.000000 -1.000000
vn -0.000000 -0.000000 -1.000000
vn -0.000000 -0.000000 -1.000000
vn 1.000000 0.000000 0.000000
vn 1.000000 0.000000 0.000000
vn 1.000000 0.000000 0.000000
vn 1.000000 0.000000 0.000000
vn 1.000000 0.000000 0.000000
vn 1.000000 0.000000 0.000000
vn 1.000000 0.000000 0.000000
vn 1.000000 0.000000 0.000000
vn 0.000000 -1.000000 0.000000
vn 0.000000 -1.000000 0.000000
vn 0.000000 -1.000000 0.000000
vn 0.000000 -1.000000 0.000000
vn -1.000000 0.000000 0.000000
vn -1.000000 0.000000 0.000000
vn -1.000000 0.000000 0.000000
vn -1.000000 0.000000 0.000000
vn -1.000000 0.000000 0.000000
vn -1.000000 0.000000 0.000000
vn -1.000000 0.000000 0.000000
vn -1.000000 0.000000 0.000000
vn 0.000000 -1.000000 0.000000
vn 0.000000 -1.000000 0.000000
vn 0.000000 -1.000000 0.000000
vn 0.000000 -1.000000 0.000000
vn -1.000000 0.000000 0.000000
vn -1.000000 0.000000 0.000000
vn -1.000000 0.000000 0.000000
vn -1.000000 0.000000 0.000000
vn 0.000000 1.000000 0.000000
vn 0.000000 1.000000 0.000000
vn 0.000000 1.000000 0.000000
vn 0.000000 1.000000 0.000000
vn 1.000000 0.000000 0.000000
vn 1.000000 0.000000 0.000000
vn 1.000000 0.000000 0.000000
vn 1.000000 0.000000 0.000000
vn 0.000000 -1.000000 0.000000
vn 0.000000 -1.000000 0.000000
vn 0.000000 -1.000000 0.000000
vn 0.000000 -1.000000 0.000000
vn -0.000000 -1.000000 -0.000000
vn -0.000000 -1.000000 -0.000000
vn -0.000000 -1.000000 -0.000000
vn -0.000000 -1.000000 -0.000000
vn -1.000000 -0.000000 -0.000000
vn -1.000000 -0.000000 -0.000000
vn -1.000000 -0.000000 -0.000000
vn -1.000000 -0.000000 -0.000000
vn 0.000000 1.000000 -0.000000
vn 0.000000 1.000000 -0.000000
vn 0.000000 1.000000 -0.000000
vn 0.000000 1.000000 -0.000000
vn 1.000000 -0.000000 -0.000000
vn 1.000000 -0.000000 -0.000000
vn 1.000000 -0.000000 -0.000000
vn 1.000000 -0.000000 -0.000000
vn 0.000000 0.000000 1.000000
vn 0.000000 0.000000 1.000000
vn 0.000000 0.000000 1.000000
vn 0.000000 0.000000 1.000000
vn 0.000000 1.000000 0.000000
vn 0.000000 1.000000 0.000000
vn 0.000000 1.000000 0.000000
vn 0.000000 1.000000 0.000000
vn 1.000000 0.000000 0.000000
vn 1.000000 0.000000 0.000000
vn 1.000000 0.000000 0.000000
vn 1.000000 0.000000 0.000000
vn -0.000000 -1.000000 0.000000
vn -0.000000 -1.000000 0.000000
vn -0.000000 -1.000000 0.000000
vn -0.000000 -1.000000 0.000000
vn -1.000000 0.000000 0.000000
vn -1.000000 0.000000 0.000000
vn -1.000000 0.000000 0.000000
vn -1.000000 0.000000 0.000000
vn -0.000000 -0.000000 -1.000000
vn -0.000000 -0.000000 -1.000000
vn -0.000000 -0.000000 -1.000000
vn -0.000000 -0.000000 -1.000000
usemtl Plastic_-_Matte_(Black)
f 1/1/1 2/2/2 4/3/3
f 4/3/3 2/2/2 3/4/4
f 5/5/5 4/6/6 6/7/7
f 6/7/7 4/6/6 3/8/8
f 2/9/9 1/10/10 8/11/11
f 8/11/11 1/10/10 7/12/12
f 9/13/13 10/14/14 6/15/15
f 6/15/15 10/14/14 5/16/16
f 8/17/17 7/18/18 16/19/19
f 16/19/19 7/18/18 11/20/20
f 16/19/19 11/20/20 18/21/21
f 18/21/21 11/20/20 17/22/22
f 17/22/22 11/20/20 12/23/23
f 17/22/22 12/23/23 20/24/24
f 20/24/24 12/23/23 13/25/25
f 20/24/24 13/25/25 14/26/26
f 20/24/24 14/26/26 19/27/27
f 19/27/27 14/26/26 15/28/28
f 19/27/27 15/28/28 18/21/21
f 18/21/21 15/28/28 16/19/19
f 28/29/29 21/30/30 32/31/31
f 32/31/31 21/30/30 22/32/32
f 32/31/31 22/32/32 25/33/33
f 25/33/33 22/32/32 24/34/34
f 24/34/34 22/32/32 23/35/35
f 32/31/31 25/33/33 31/36/36
f 31/36/36 25/33/33 26/37/37
f 31/36/36 26/37/37 27/38/38
f 31/36/36 27/38/38 30/39/39
f 30/39/39 27/38/38 28/29/29
f 30/39/39 28/29/29 29/40/40
f 29/40/40 28/29/29 32/31/31
f 22/41/41 7/42/42 23/43/43
f 23/43/43 7/42/42 1/44/44
f 23/43/43 1/44/44 10/45/45
f 10/45/45 1/44/44 5/46/46
f 5/46/46 1/44/44 4/47/47
f 22/41/41 11/48/48 7/42/42
f 24/49/49 23/50/50 9/51/51
f 9/51/51 23/50/50 10/52/52
f 16/53/53 25/54/54 8/55/55
f 8/55/55 25/54/54 24/56/56
f 8/55/55 24/56/56 2/57/57
f 2/57/57 24/56/56 9/58/58
f 2/57/57 9/58/58 6/59/59
f 6/59/59 3/60/60 2/57/57
f 26/61/61 25/62/62 15/63/63
f 15/63/63 25/62/62 16/64/64
f 27/65/65 26/66/66 14/67/67
f 14/67/67 26/66/66 15/68/68
f 28/69/69 27/70/70 13/71/71
f 13/71/71 27/70/70 14/72/72
f 21/73/73 28/74/74 12/75/75
f 12/75/75 28/74/74 13/76/76
f 22/77/77 21/78/78 11/79/79
f 11/79/79 21/78/78 12/80/80
f 33/81/81 34/82/82 19/83/83
f 19/83/83 34/82/82 20/84/84
f 34/85/85 35/86/86 20/87/87
f 20/87/87 35/86/86 17/88/88
f 35/89/89 36/90/90 17/91/91
f 17/91/91 36/90/90 18/92/92
f 36/93/93 33/94/94 18/95/95
f 18/95/95 33/94/94 19/96/96
f 36/97/97 35/98/98 33/99/99
f 33/99/99 35/98/98 34/100/100
f 37/101/101 38/102/102 29/103/103
f 29/103/103 38/102/102 30/104/104
f 39/105/105 37/106/106 32/107/107
f 32/107/107 37/106/106 29/108/108
f 40/109/109 39/110/110 31/111/111
f 31/111/111 39/110/110 32/112/112
f 38/113/113 40/114/114 30/115/115
f 30/115/115 40/114/114 31/116/116
f 38/117/117 37/118/118 40/119/119
f 40/119/119 37/118/118 39/120/120
# 40 vertices
# 120 texture params
# 120 normals
# 76 facets

# 1 groups
